<mxfile host="app.diagrams.net" modified="2023-05-04T12:53:05.392Z" agent="Mozilla/5.0 (Windows NT 10.0; Win64; x64) AppleWebKit/537.36 (KHTML, like Gecko) Chrome/113.0.0.0 Safari/537.36" etag="OgyKJNd6q5QO5buvs_E_" version="21.2.7" type="device">
  <diagram name="第 1 页" id="omzbpPnTzd4TjDKtmcm7">
    <mxGraphModel dx="1077" dy="660" grid="1" gridSize="10" guides="1" tooltips="1" connect="1" arrows="1" fold="1" page="1" pageScale="1" pageWidth="827" pageHeight="1169" math="0" shadow="0">
      <root>
        <mxCell id="0" />
        <mxCell id="1" parent="0" />
        <mxCell id="dGvhi3B_mBVfeL1NWB9a-44" value="" style="edgeStyle=orthogonalEdgeStyle;rounded=0;orthogonalLoop=1;jettySize=auto;html=1;" parent="1" source="dGvhi3B_mBVfeL1NWB9a-1" target="dGvhi3B_mBVfeL1NWB9a-4" edge="1">
          <mxGeometry relative="1" as="geometry" />
        </mxCell>
        <mxCell id="dGvhi3B_mBVfeL1NWB9a-1" value="GitHub Data" style="shape=process;whiteSpace=wrap;html=1;backgroundOutline=1;fontStyle=1;fillColor=#ffe6cc;strokeColor=#d79b00;" parent="1" vertex="1">
          <mxGeometry x="20" y="235" width="100" height="50" as="geometry" />
        </mxCell>
        <mxCell id="dGvhi3B_mBVfeL1NWB9a-42" value="" style="edgeStyle=orthogonalEdgeStyle;rounded=0;orthogonalLoop=1;jettySize=auto;html=1;" parent="1" source="dGvhi3B_mBVfeL1NWB9a-3" target="dGvhi3B_mBVfeL1NWB9a-5" edge="1">
          <mxGeometry relative="1" as="geometry" />
        </mxCell>
        <mxCell id="dGvhi3B_mBVfeL1NWB9a-3" value="Data Source Server" style="shape=process;whiteSpace=wrap;html=1;backgroundOutline=1;fontStyle=1;fillColor=#ffe6cc;strokeColor=#d79b00;" parent="1" vertex="1">
          <mxGeometry x="20" y="310" width="70" height="60" as="geometry" />
        </mxCell>
        <mxCell id="dGvhi3B_mBVfeL1NWB9a-45" style="edgeStyle=orthogonalEdgeStyle;rounded=0;orthogonalLoop=1;jettySize=auto;html=1;exitX=1;exitY=0.5;exitDx=0;exitDy=0;entryX=0;entryY=0.5;entryDx=0;entryDy=0;" parent="1" source="dGvhi3B_mBVfeL1NWB9a-4" target="dGvhi3B_mBVfeL1NWB9a-9" edge="1">
          <mxGeometry relative="1" as="geometry">
            <Array as="points">
              <mxPoint x="340" y="215" />
              <mxPoint x="340" y="253" />
            </Array>
          </mxGeometry>
        </mxCell>
        <mxCell id="dGvhi3B_mBVfeL1NWB9a-4" value="MySql&lt;br&gt;&lt;br&gt;Relational DataBase" style="shape=trapezoid;perimeter=trapezoidPerimeter;whiteSpace=wrap;html=1;fixedSize=1;fontStyle=1;fillColor=#1ba1e2;fontColor=#ffffff;strokeColor=#006EAF;" parent="1" vertex="1">
          <mxGeometry x="200" y="190" width="130" height="50" as="geometry" />
        </mxCell>
        <mxCell id="dGvhi3B_mBVfeL1NWB9a-5" value="local files" style="whiteSpace=wrap;html=1;fontStyle=1;fillColor=#0050ef;fontColor=#ffffff;strokeColor=#001DBC;" parent="1" vertex="1">
          <mxGeometry x="110" y="318.75" width="40" height="42.5" as="geometry" />
        </mxCell>
        <mxCell id="dGvhi3B_mBVfeL1NWB9a-26" style="edgeStyle=orthogonalEdgeStyle;rounded=0;orthogonalLoop=1;jettySize=auto;html=1;exitX=1;exitY=0.75;exitDx=0;exitDy=0;" parent="1" source="dGvhi3B_mBVfeL1NWB9a-6" target="dGvhi3B_mBVfeL1NWB9a-14" edge="1">
          <mxGeometry relative="1" as="geometry">
            <Array as="points">
              <mxPoint x="450" y="375" />
              <mxPoint x="450" y="375" />
            </Array>
          </mxGeometry>
        </mxCell>
        <mxCell id="dGvhi3B_mBVfeL1NWB9a-6" value="Kafka" style="rounded=1;whiteSpace=wrap;html=1;fontStyle=1;fontSize=14;fillColor=#60a917;fontColor=#ffffff;strokeColor=#2D7600;" parent="1" vertex="1">
          <mxGeometry x="210" y="260" width="70" height="160" as="geometry" />
        </mxCell>
        <mxCell id="dGvhi3B_mBVfeL1NWB9a-38" value="" style="edgeStyle=orthogonalEdgeStyle;rounded=0;orthogonalLoop=1;jettySize=auto;html=1;" parent="1" source="dGvhi3B_mBVfeL1NWB9a-7" target="dGvhi3B_mBVfeL1NWB9a-13" edge="1">
          <mxGeometry relative="1" as="geometry">
            <Array as="points">
              <mxPoint x="500" y="310" />
              <mxPoint x="500" y="256" />
            </Array>
          </mxGeometry>
        </mxCell>
        <mxCell id="dGvhi3B_mBVfeL1NWB9a-7" value="&amp;nbsp; &amp;nbsp; &amp;nbsp; &amp;nbsp;HDFS" style="rounded=1;whiteSpace=wrap;html=1;fontStyle=1;fontSize=14;fillColor=#008a00;fontColor=#ffffff;strokeColor=#005700;" parent="1" vertex="1">
          <mxGeometry x="357" y="290" width="120" height="40" as="geometry" />
        </mxCell>
        <mxCell id="dGvhi3B_mBVfeL1NWB9a-20" style="edgeStyle=orthogonalEdgeStyle;rounded=0;orthogonalLoop=1;jettySize=auto;html=1;exitX=0.5;exitY=0;exitDx=0;exitDy=0;entryX=0.188;entryY=1.004;entryDx=0;entryDy=0;entryPerimeter=0;" parent="1" source="dGvhi3B_mBVfeL1NWB9a-8" target="dGvhi3B_mBVfeL1NWB9a-9" edge="1">
          <mxGeometry relative="1" as="geometry" />
        </mxCell>
        <mxCell id="dGvhi3B_mBVfeL1NWB9a-8" value="tmp" style="whiteSpace=wrap;html=1;fontStyle=1;fillColor=#60a917;fontColor=#ffffff;strokeColor=#2D7600;" parent="1" vertex="1">
          <mxGeometry x="357" y="290" width="40" height="30" as="geometry" />
        </mxCell>
        <mxCell id="dGvhi3B_mBVfeL1NWB9a-19" style="edgeStyle=orthogonalEdgeStyle;rounded=0;orthogonalLoop=1;jettySize=auto;html=1;exitX=0.75;exitY=1;exitDx=0;exitDy=0;entryX=0.75;entryY=0;entryDx=0;entryDy=0;" parent="1" source="dGvhi3B_mBVfeL1NWB9a-9" target="dGvhi3B_mBVfeL1NWB9a-7" edge="1">
          <mxGeometry relative="1" as="geometry" />
        </mxCell>
        <mxCell id="dGvhi3B_mBVfeL1NWB9a-22" value="" style="edgeStyle=orthogonalEdgeStyle;rounded=0;orthogonalLoop=1;jettySize=auto;html=1;" parent="1" source="dGvhi3B_mBVfeL1NWB9a-9" target="dGvhi3B_mBVfeL1NWB9a-10" edge="1">
          <mxGeometry relative="1" as="geometry" />
        </mxCell>
        <mxCell id="dGvhi3B_mBVfeL1NWB9a-39" value="" style="edgeStyle=orthogonalEdgeStyle;rounded=0;orthogonalLoop=1;jettySize=auto;html=1;" parent="1" source="dGvhi3B_mBVfeL1NWB9a-9" target="dGvhi3B_mBVfeL1NWB9a-13" edge="1">
          <mxGeometry relative="1" as="geometry">
            <Array as="points">
              <mxPoint x="490" y="256" />
              <mxPoint x="490" y="256" />
            </Array>
          </mxGeometry>
        </mxCell>
        <mxCell id="dGvhi3B_mBVfeL1NWB9a-9" value="Hive" style="whiteSpace=wrap;html=1;fontStyle=1;fontSize=14;fillColor=#76608a;fontColor=#ffffff;strokeColor=#432D57;" parent="1" vertex="1">
          <mxGeometry x="357" y="230" width="120" height="45" as="geometry" />
        </mxCell>
        <mxCell id="dGvhi3B_mBVfeL1NWB9a-40" value="" style="edgeStyle=orthogonalEdgeStyle;rounded=0;orthogonalLoop=1;jettySize=auto;html=1;" parent="1" source="dGvhi3B_mBVfeL1NWB9a-10" target="dGvhi3B_mBVfeL1NWB9a-13" edge="1">
          <mxGeometry relative="1" as="geometry">
            <Array as="points">
              <mxPoint x="499" y="190" />
              <mxPoint x="499" y="256" />
            </Array>
          </mxGeometry>
        </mxCell>
        <mxCell id="dGvhi3B_mBVfeL1NWB9a-10" value="Mysql&lt;br&gt;metadata" style="shape=trapezoid;perimeter=trapezoidPerimeter;whiteSpace=wrap;html=1;fixedSize=1;fontStyle=1;fillColor=#1ba1e2;fontColor=#ffffff;strokeColor=#006EAF;" parent="1" vertex="1">
          <mxGeometry x="357" y="170" width="120" height="40" as="geometry" />
        </mxCell>
        <mxCell id="dGvhi3B_mBVfeL1NWB9a-41" value="" style="edgeStyle=orthogonalEdgeStyle;rounded=0;orthogonalLoop=1;jettySize=auto;html=1;" parent="1" source="dGvhi3B_mBVfeL1NWB9a-13" target="dGvhi3B_mBVfeL1NWB9a-15" edge="1">
          <mxGeometry relative="1" as="geometry">
            <Array as="points">
              <mxPoint x="640" y="255" />
            </Array>
          </mxGeometry>
        </mxCell>
        <mxCell id="dGvhi3B_mBVfeL1NWB9a-13" value="Spark" style="whiteSpace=wrap;html=1;fontStyle=1;fontSize=14;fillColor=#f0a30a;fontColor=#000000;strokeColor=#BD7000;" parent="1" vertex="1">
          <mxGeometry x="520" y="182.5" width="70" height="147.5" as="geometry" />
        </mxCell>
        <mxCell id="dGvhi3B_mBVfeL1NWB9a-14" value="Spark Streaming" style="whiteSpace=wrap;html=1;fontStyle=1;fontSize=14;fillColor=#f0a30a;fontColor=#000000;strokeColor=#BD7000;" parent="1" vertex="1">
          <mxGeometry x="520" y="330" width="70" height="70" as="geometry" />
        </mxCell>
        <mxCell id="dGvhi3B_mBVfeL1NWB9a-35" value="" style="edgeStyle=orthogonalEdgeStyle;rounded=0;orthogonalLoop=1;jettySize=auto;html=1;" parent="1" source="dGvhi3B_mBVfeL1NWB9a-15" target="dGvhi3B_mBVfeL1NWB9a-16" edge="1">
          <mxGeometry relative="1" as="geometry" />
        </mxCell>
        <mxCell id="dGvhi3B_mBVfeL1NWB9a-15" value="MySQL" style="shape=trapezoid;perimeter=trapezoidPerimeter;whiteSpace=wrap;html=1;fixedSize=1;fontStyle=1;fontSize=14;fillColor=#1ba1e2;fontColor=#ffffff;strokeColor=#006EAF;" parent="1" vertex="1">
          <mxGeometry x="630" y="265" width="110" height="40" as="geometry" />
        </mxCell>
        <mxCell id="dGvhi3B_mBVfeL1NWB9a-16" value="DashBoard&lt;br style=&quot;font-size: 14px;&quot;&gt;visualization" style="whiteSpace=wrap;html=1;fontStyle=1;fontSize=14;fillColor=#a20025;fontColor=#ffffff;strokeColor=#6F0000;" parent="1" vertex="1">
          <mxGeometry x="630" y="330" width="110" height="60" as="geometry" />
        </mxCell>
        <mxCell id="dGvhi3B_mBVfeL1NWB9a-46" value="flume" style="shape=hexagon;perimeter=hexagonPerimeter2;whiteSpace=wrap;html=1;fixedSize=1;fontStyle=1;fontSize=13;size=20;fillColor=#fff2cc;strokeColor=#d6b656;" parent="1" vertex="1">
          <mxGeometry x="150" y="330" width="60" height="20" as="geometry" />
        </mxCell>
        <mxCell id="dGvhi3B_mBVfeL1NWB9a-47" value="&lt;b style=&quot;font-size: 13px;&quot;&gt;consumer&lt;/b&gt;" style="text;html=1;align=center;verticalAlign=middle;resizable=0;points=[];autosize=1;strokeColor=none;fillColor=none;fontSize=13;" parent="1" vertex="1">
          <mxGeometry x="357" y="350" width="90" height="30" as="geometry" />
        </mxCell>
        <mxCell id="dGvhi3B_mBVfeL1NWB9a-48" value="flume" style="shape=hexagon;perimeter=hexagonPerimeter2;whiteSpace=wrap;html=1;fixedSize=1;fontStyle=1;fontSize=13;fillColor=#fff2cc;strokeColor=#d6b656;" parent="1" vertex="1">
          <mxGeometry x="280" y="295" width="77" height="20" as="geometry" />
        </mxCell>
        <mxCell id="BJTCG36yEG4gya6lMb7O-1" value="DataWareHouse" style="text;html=1;align=center;verticalAlign=middle;resizable=0;points=[];autosize=1;strokeColor=none;fillColor=none;fontStyle=1;fontSize=14;" parent="1" vertex="1">
          <mxGeometry x="352" y="130" width="130" height="30" as="geometry" />
        </mxCell>
        <mxCell id="BJTCG36yEG4gya6lMb7O-2" value="Data Analyze" style="text;html=1;align=center;verticalAlign=middle;resizable=0;points=[];autosize=1;strokeColor=none;fillColor=none;fontStyle=1;fontSize=14;" parent="1" vertex="1">
          <mxGeometry x="500" y="410" width="110" height="30" as="geometry" />
        </mxCell>
        <mxCell id="QakR6zut2A-hb6ouolAF-1" value="MongoDB" style="shape=trapezoid;perimeter=trapezoidPerimeter;whiteSpace=wrap;html=1;fixedSize=1;fontStyle=1;fontSize=14;fillColor=#B266FF;fontColor=#ffffff;strokeColor=#006EAF;" vertex="1" parent="1">
          <mxGeometry x="630" y="200" width="110" height="40" as="geometry" />
        </mxCell>
        <mxCell id="QakR6zut2A-hb6ouolAF-2" value="" style="endArrow=classic;html=1;rounded=0;exitX=0.98;exitY=0.05;exitDx=0;exitDy=0;exitPerimeter=0;entryX=0;entryY=0.5;entryDx=0;entryDy=0;" edge="1" parent="1" source="dGvhi3B_mBVfeL1NWB9a-13" target="QakR6zut2A-hb6ouolAF-1">
          <mxGeometry width="50" height="50" relative="1" as="geometry">
            <mxPoint x="690" y="310" as="sourcePoint" />
            <mxPoint x="740" y="260" as="targetPoint" />
          </mxGeometry>
        </mxCell>
        <mxCell id="QakR6zut2A-hb6ouolAF-3" value="Possible&lt;br&gt;App" style="ellipse;whiteSpace=wrap;html=1;aspect=fixed;dashed=1;" vertex="1" parent="1">
          <mxGeometry x="645" y="90" width="80" height="80" as="geometry" />
        </mxCell>
        <mxCell id="QakR6zut2A-hb6ouolAF-4" value="" style="endArrow=classic;html=1;rounded=0;exitX=0.5;exitY=0;exitDx=0;exitDy=0;entryX=0.5;entryY=1;entryDx=0;entryDy=0;" edge="1" parent="1" source="QakR6zut2A-hb6ouolAF-1" target="QakR6zut2A-hb6ouolAF-3">
          <mxGeometry width="50" height="50" relative="1" as="geometry">
            <mxPoint x="650" y="280" as="sourcePoint" />
            <mxPoint x="700" y="230" as="targetPoint" />
          </mxGeometry>
        </mxCell>
      </root>
    </mxGraphModel>
  </diagram>
</mxfile>
